# xmcd
#
# Track frame offsets:
#	150
#	16716
#	33783
#	47681
#	63650
#	79877
#	100495
#	116338
#	139428
#	156692
#	172535
#	191265
#	213857
#	231421
#
# Disc length: 3303 seconds
#
# Revision: 0
# Processed by: cddbd v1.5PL3 Copyright (c) Steve Scherf et al.
# Submitted via: dBpowerAMP V4.0
#
DISCID=b60ce50e
DTITLE=Sean Brady - Great Irish Pub Songs
DYEAR=1995
DGENRE=Vocal
TTITLE0=I'll Tell me ma
TTITLE1=brown eyed girl
TTITLE2=leaving of liverpool
TTITLE3=sonny's dream
TTITLE4=city of chicago
TTITLE5=fairytale of new york
TTITLE6=country roads
TTITLE7=carrickfurgus
TTITLE8=the boxer
TTITLE9=dirty old town
TTITLE10=back home in derry
TTITLE11=ride on
TTITLE12=spancil hill
TTITLE13=star of the county down
EXTD=Sean Brady Irish classic pub songs
EXTT0=
EXTT1=
EXTT2=
EXTT3=
EXTT4=
EXTT5=
EXTT6=
EXTT7=
EXTT8=
EXTT9=
EXTT10=
EXTT11=
EXTT12=
EXTT13=
PLAYORDER=
